<svg xmlns="http://www.w3.org/2000/svg" width="200" height="127.421" viewBox="0 0 200 127.421"><g data-name="4"><path data-name="1" d="M154.161 127.421H31.235c-6.361 0-9.64-5.156-7.325-11.516l29.388-80.741c2.315-6.361 9.348-11.517 15.708-11.517h122.926c6.361 0 9.64 5.156 7.325 11.517l-29.388 80.741c-2.314 6.361-9.347 11.516-15.708 11.516z" fill="#23cc69"/><g data-name="3"><path data-name="3" d="M130.994 103.775H8.068c-6.361 0-9.64-5.156-7.325-11.517l29.388-80.741C32.446 5.157 39.479.001 45.839.001h122.926c6.361 0 9.64 5.156 7.325 11.516l-29.389 80.741c-2.313 6.361-9.346 11.517-15.707 11.517z" fill="#0284ff" style="isolation:isolate"/><g data-name="2" fill="#fff"><g data-name="1" style="isolation:isolate"><path data-name="4" d="M63.845 87.143c-.178.023-.426.065-.742.128s-.665.133-1.044.212l-1.193.246c-.416.085-.811.17-1.187.255l-1.017.229c-.3.068-.526.118-.674.153l.36-1.6c.2-.035.523-.093.955-.178l1.417-.281 1.538-4.225h-1.7l.568-1.561h1.7l1.285-3.53h-1.833l.562-1.544h5.142l-.562 1.544h-1.748l-1.285 3.53h1.631l-.568 1.561h-1.632l-1.408 3.869 1.107-.246q.5-.11.761-.178zm9.421.272l-.562 1.544H62.353l.562-1.544h4.446l.531-1.459h-3.474l.569-1.561h3.478l.531-1.459h-3.343l2.915-8.009h8.246l-2.915 8.009h-3.343l-.531 1.459h3.546l-.568 1.561h-3.546l-.539 1.459zm-3.718-6.007l.624-1.714h-1.764l-.624 1.714zm.039-4.954l-.636 1.748h1.767l.637-1.748zm3.3 4.954l.624-1.714H71.73l-.624 1.714zm1.8-4.954h-1.781l-.637 1.748h1.782z"/><path data-name="5" d="M92.107 81.476h-1.206l-.778 2.138h-3.156l-.377 1.035h3l-1.755 4.819h-1.527l.2-.543h-3.953l-.2.559h-1.561l1.761-4.836H85.1l.377-1.035h-2.562l.481-1.323h2.563l.3-.815h-2.8q-.48 1.272-1 2.367a23.151 23.151 0 0 1-1.119 2.085 22.248 22.248 0 0 1-2.816 3.725l-1.178-.678q.737-.814 1.308-1.519t1.05-1.417l-4.564 1.255.2-1.561q.541-.135 1.057-.272l1.024-.272 1.927-5.294h-1.493l.586-1.612h1.494l1.439-3.954 1.519.069-1.414 3.885h1.391l-.586 1.612h-1.392l-1.754 4.819c.229-.067.45-.133.665-.194s.417-.121.607-.178l-.15.832a19.885 19.885 0 0 0 .92-1.782q.424-.934.857-2.121l2.088-5.736h4.157c.019-.237.033-.472.045-.7s.018-.432.023-.6l1.7-.237c-.006.2-.016.438-.027.7s-.026.546-.042.84h3.852l-.513 1.409h-8.213l-1.179 3.241h2.8l.284-.781h-2.494l.475-1.306h2.5l.315-.866 1.469.068-.291.8h3.156l-.759 2.087h1.2zm-4.534 4.531h-3.954l-.581 1.6h3.954zm1.9-4.531h-1.731l-.3.815h1.731zm-1.262-1.289h1.731l.284-.781h-1.73z"/></g><path data-name="6" d="M106.065 29.267a3.835 3.835 0 0 0-1.136.622l-.065.048c.68-5.026.33-12.348-6.844-15.651a2.658 2.658 0 0 0-2.224.192 4.137 4.137 0 0 0-1.811 1.819c-1.472 3.255-6.474 12.4-11.792 15.7-6.293 3.877-13.627 10.482-15.257 17.326-1.482 6.174 1.771 11.439 9.589 15.6a2.928 2.928 0 0 0 3.216-.814 2.622 2.622 0 0 0 .907-3.016 11.409 11.409 0 0 1 .082-9.955 16.5 16.5 0 0 1 5.576-5.983 9.692 9.692 0 0 0 2.6 6.8c2.84 3.111-3.632 9.189-3.91 9.429a2.826 2.826 0 0 0-1.041 2.728 1.529 1.529 0 0 0 1.579 1.053 2.571 2.571 0 0 0 .592-.047c.579-.144 14.286-3.351 21.093-13.115 4.423-6.366 4.808-13.736 1.087-21.921-.165-.861-1.161-1.148-2.24-.814z" style="isolation:isolate"/></g></g></g></svg>